<?xml version="1.0" encoding="UTF-8"?>
<svg width="100px" height="137px" viewBox="0 0 100 137" version="1.1" xmlns="http://www.w3.org/2000/svg" xmlns:xlink="http://www.w3.org/1999/xlink">
    <!-- Generator: Sketch 63.1 (92452) - https://sketch.com -->
    <title>betslip-empty.default</title>
    <desc>Created with Sketch.</desc>
    <g id="Page-1" stroke="none" stroke-width="1" fill="none" fill-rule="evenodd">
        <g id="betslip-empty.default">
            <g id="Ticket-1-empty-betslip-image">
                <rect id="Rectangle" fill="#FFFFFF" x="0" y="0" width="100" height="45" rx="4"></rect>
                <rect id="Rectangle-2" fill-opacity="0.75" fill="#D8D8D8" fill-rule="nonzero" x="10" y="10" width="5" height="5"></rect>
                <rect id="Rectangle-2-Copy" fill-opacity="0.75" fill="#D8D8D8" fill-rule="nonzero" x="20" y="10" width="60" height="5"></rect>
                <rect id="Rectangle-2-Copy-2" fill-opacity="0.75" fill="#D8D8D8" fill-rule="nonzero" x="10" y="20" width="60" height="5"></rect>
                <rect id="Rectangle-2-Copy-3" fill-opacity="0.75" fill="#D8D8D8" fill-rule="nonzero" x="10" y="30" width="50" height="5"></rect>
                <rect id="Rectangle-2-Copy-4" fill="#FF5500" fill-rule="nonzero" x="78" y="30" width="12" height="5"></rect>
            </g>
            <g id="Ticket-2-empty-betslip-image" transform="translate(0.000000, 46.000000)">
                <rect id="Rectangle" fill="#F1F2F3" x="0" y="0" width="100" height="45" rx="4"></rect>
                <rect id="Rectangle-2" fill="#DCDDDE" fill-rule="nonzero" x="10" y="10" width="5" height="5"></rect>
                <rect id="Rectangle-2-Copy" fill="#DCDDDE" fill-rule="nonzero" x="20" y="10" width="60" height="5"></rect>
                <rect id="Rectangle-2-Copy-2" fill="#DCDDDE" fill-rule="nonzero" x="10" y="20" width="60" height="5"></rect>
                <rect id="Rectangle-2-Copy-3" fill="#DCDDDE" fill-rule="nonzero" x="10" y="30" width="50" height="5"></rect>
                <rect id="Rectangle-2-Copy-4" fill="#F17334" fill-rule="nonzero" x="78" y="30" width="12" height="5"></rect>
            </g>
            <g id="Ticket-3-empty-betslip-image" transform="translate(0.000000, 92.000000)">
                <rect id="Rectangle" fill="#E4E6E8" x="0" y="0" width="100" height="45" rx="4"></rect>
                <rect id="Rectangle-2" fill="#D6D8DA" fill-rule="nonzero" x="10" y="10" width="5" height="5"></rect>
                <rect id="Rectangle-2-Copy" fill="#D6D8DA" fill-rule="nonzero" x="20" y="10" width="60" height="5"></rect>
                <rect id="Rectangle-2-Copy-2" fill="#D6D8DA" fill-rule="nonzero" x="10" y="20" width="60" height="5"></rect>
                <rect id="Rectangle-2-Copy-3" fill="#D6D8DA" fill-rule="nonzero" x="10" y="30" width="50" height="5"></rect>
                <rect id="Rectangle-2-Copy-4" fill="#E49168" fill-rule="nonzero" x="78" y="30" width="12" height="5"></rect>
            </g>
        </g>
    </g>
</svg>