<?xml version="1.0" encoding="UTF-8"?>
<svg width="160px" height="107px" viewBox="0 0 160 107" version="1.1" xmlns="http://www.w3.org/2000/svg" xmlns:xlink="http://www.w3.org/1999/xlink">
    <!-- Generator: sketchtool 49.3 (51167) - http://www.bohemiancoding.com/sketch -->
    <title>7AFF5CE3-350C-42F8-A564-B1FEB3D7F64B</title>
    <desc>Created with sketchtool.</desc>
    <defs></defs>
    <g id="Page-1" stroke="none" stroke-width="1" fill="none" fill-rule="evenodd">
        <g id="TRANSACTION-HISTORY---NO-BETS" transform="translate(-515.000000, -374.000000)">
            <g id="TRANSACTION-HISTORY" transform="translate(210.000000, 164.000000)">
                <g id="EMPTY-TRANSACTION" transform="translate(15.000000, 160.000000)">
                    <g id="Group-6" transform="translate(263.000000, 50.000000)">
                        <g id="Empty-tickets-image" transform="translate(27.000000, 0.000000)">
                            <g id="Ticket-1-empty-betslip-image-Copy-2">
                                <path d="M3,0 L157,0 C158.656854,-3.04359188e-16 160,1.34314575 160,3 L160,32 C160,33.6568542 158.656854,35 157,35 L3,35 C1.34314575,35 2.02906125e-16,33.6568542 0,32 L0,3 C-2.02906125e-16,1.34314575 1.34314575,1.63662682e-15 3,1.33226763e-15 Z" id="Combined-Shape" fill="#FFFFFF"></path>
                                <rect id="Rectangle-2-Copy" fill-opacity="0.75" fill="#D8D8D8" x="10" y="10" width="60" height="5"></rect>
                                <rect id="Rectangle-2-Copy-2" fill-opacity="0.75" fill="#D8D8D8" x="10" y="20" width="50" height="5"></rect>
                                <rect id="Rectangle-2-Copy-13" fill="#E2E2E2" x="96" y="15" width="22" height="5"></rect>
                                <rect id="Rectangle-2-Copy-16" fill="#E2E2E2" x="128" y="15" width="22" height="5"></rect>
                            </g>
                            <g id="Ticket-1-empty-betslip-image-Copy-3" transform="translate(0.000000, 36.000000)">
                                <path d="M3,0 L157,0 C158.656854,-3.04359188e-16 160,1.34314575 160,3 L160,32 C160,33.6568542 158.656854,35 157,35 L3,35 C1.34314575,35 2.02906125e-16,33.6568542 0,32 L0,3 C-2.02906125e-16,1.34314575 1.34314575,1.63662682e-15 3,1.33226763e-15 Z" id="Combined-Shape" fill="#F1F2F3"></path>
                                <rect id="Rectangle-2-Copy" fill-opacity="0.75" fill="#D8D8D8" x="10" y="10" width="60" height="5"></rect>
                                <rect id="Rectangle-2-Copy-2" fill-opacity="0.75" fill="#D8D8D8" x="10" y="20" width="50" height="5"></rect>
                                <rect id="Rectangle-2-Copy-13" fill="#E2E2E2" x="96" y="15" width="22" height="5"></rect>
                                <rect id="Rectangle-2-Copy-16" fill="#E2E2E2" x="128" y="15" width="22" height="5"></rect>
                            </g>
                            <g id="Ticket-1-empty-betslip-image-Copy-4" transform="translate(0.000000, 72.000000)">
                                <path d="M3,0 L157,0 C158.656854,-3.04359188e-16 160,1.34314575 160,3 L160,32 C160,33.6568542 158.656854,35 157,35 L3,35 C1.34314575,35 2.02906125e-16,33.6568542 0,32 L0,3 C-2.02906125e-16,1.34314575 1.34314575,1.63662682e-15 3,1.33226763e-15 Z" id="Combined-Shape" fill="#E4E6E8"></path>
                                <rect id="Rectangle-2-Copy" fill-opacity="0.75" fill="#D8D8D8" x="10" y="10" width="60" height="5"></rect>
                                <rect id="Rectangle-2-Copy-2" fill-opacity="0.75" fill="#D8D8D8" x="10" y="20" width="50" height="5"></rect>
                                <rect id="Rectangle-2-Copy-13" fill="#E2E2E2" x="96" y="15" width="22" height="5"></rect>
                                <rect id="Rectangle-2-Copy-16" fill="#E2E2E2" x="128" y="15" width="22" height="5"></rect>
                            </g>
                        </g>
                    </g>
                </g>
            </g>
        </g>
    </g>
</svg>